<?xml version="1.0" encoding="utf-8"?>
<!-- Generator: Adobe Illustrator 27.5.0, SVG Export Plug-In . SVG Version: 6.00 Build 0)  -->
<svg version="1.1" xmlns="http://www.w3.org/2000/svg" xmlns:xlink="http://www.w3.org/1999/xlink" x="0px" y="0px"
	 viewBox="0 0 500 500" style="enable-background:new 0 0 500 500;" xml:space="preserve">
<g id="BACKGROUND">
	<rect id="XMLID_120_" style="fill:#FFFFFF;" width="500" height="500"/>
</g>
<g id="OBJECT">
	<g id="XMLID_123_">
		<path id="XMLID_64_" style="fill:#CEDAFF;" d="M360.71,406.065h-52.466c-65.048,0-117.78-52.732-117.78-117.78V186.565
			c0-65.048,52.732-117.78,117.78-117.78h52.466c65.048,0,117.78,52.732,117.78,117.78v101.719
			C478.491,353.332,425.758,406.065,360.71,406.065z"/>
		<g id="XMLID_65_">
			<path id="XMLID_46_" style="fill:#FFEABF;" d="M448.153,189.777h-75.665c-5.913,0-10.707-4.794-10.707-10.707V64.858
				c0-5.913,4.794-10.707,10.707-10.707h75.665c5.913,0,10.707,4.794,10.707,10.707V179.07
				C458.86,184.983,454.067,189.777,448.153,189.777z"/>
			<rect id="XMLID_42_" x="372.845" y="69.141" style="fill:#F9C89B;" width="74.237" height="2.855"/>
			<rect id="XMLID_48_" x="372.845" y="77.35" style="fill:#F9C89B;" width="74.237" height="2.855"/>
			<rect id="XMLID_49_" x="372.845" y="85.559" style="fill:#F9C89B;" width="74.237" height="2.855"/>
			<rect id="XMLID_50_" x="372.845" y="93.768" style="fill:#F9C89B;" width="74.237" height="2.855"/>
			<rect id="XMLID_51_" x="372.845" y="101.977" style="fill:#F9C89B;" width="74.237" height="2.855"/>
			<rect id="XMLID_52_" x="372.845" y="110.186" style="fill:#F9C89B;" width="74.237" height="2.855"/>
			<rect id="XMLID_53_" x="372.845" y="118.395" style="fill:#F9C89B;" width="74.237" height="2.855"/>
			<rect id="XMLID_54_" x="372.845" y="126.604" style="fill:#F9C89B;" width="74.237" height="2.855"/>
			<rect id="XMLID_55_" x="372.845" y="134.813" style="fill:#F9C89B;" width="74.237" height="2.855"/>
			<rect id="XMLID_56_" x="372.845" y="143.022" style="fill:#F9C89B;" width="74.237" height="2.855"/>
			<rect id="XMLID_61_" x="372.845" y="151.231" style="fill:#F9C89B;" width="74.237" height="2.855"/>
			<rect id="XMLID_62_" x="372.845" y="159.44" style="fill:#F9C89B;" width="74.237" height="2.855"/>
			<path id="XMLID_47_" style="fill:#FFFFFF;" d="M436.375,181.568L436.375,181.568c-3.942,0-7.138-3.196-7.138-7.138l0,0
				c0-3.942,3.196-7.138,7.138-7.138l0,0c3.942,0,7.138,3.196,7.138,7.138l0,0C443.513,178.372,440.317,181.568,436.375,181.568z"/>
			<polygon id="XMLID_63_" style="fill:#FF7F82;" points="392.832,66.465 385.248,62.092 378.199,66.465 378.199,46.299 
				392.832,46.299 			"/>
		</g>
		<g id="XMLID_43_">
			<polygon id="XMLID_36_" style="fill:#7194FF;" points="289.559,150.99 262.79,150.899 258.276,112.883 292.429,112.883 			"/>
			<rect id="XMLID_38_" x="255.961" y="110.199" style="fill:#4E74D1;" width="37.878" height="6.639"/>
			<polygon id="XMLID_32_" style="fill:#4E74D1;" points="422.223,205.075 408.383,264.806 387.623,264.806 401.371,196.061 			"/>
			<polygon id="XMLID_30_" style="fill:#7194FF;" points="402.919,186.501 437.519,206.532 433.877,214.181 401.371,196.061 			"/>
			<path id="XMLID_24_" style="fill:#A7BAEA;" d="M453.784,336.02c14.7,0,22.807-17.003,13.619-28.478
				c-31.292-39.082-78.942-64.043-132.322-64.043s-101.03,24.961-132.322,64.043c-9.188,11.475-1.081,28.478,13.619,28.478H453.784z
				"/>
			<polygon id="XMLID_35_" style="fill:#7194FF;" points="424.564,175.461 406.536,175.461 389.262,281.741 276.174,281.741 
				257.567,175.396 237.386,175.396 330.992,104.003 330.992,104.091 			"/>
			<polygon id="XMLID_28_" style="fill:#4E74D1;" points="427.219,167.801 330.807,96.88 330.806,96.814 234.381,167.744 
				237.432,175.392 330.763,104.179 424.169,175.449 			"/>
			<path id="XMLID_33_" style="fill:#FFFFFF;" d="M358.633,221.324v60.418h-55.442v-60.418c0-15.311,12.41-27.721,27.721-27.721
				c7.648,0,14.586,3.099,19.604,8.117C355.534,206.738,358.633,213.676,358.633,221.324z"/>
			<path id="XMLID_115_" style="fill:#7194FF;" d="M355.38,221.214v60.619h-49.156v-60.619c0-13.575,11.003-24.578,24.578-24.578
				c6.781,0,12.932,2.748,17.381,7.197C352.633,208.283,355.38,214.433,355.38,221.214z"/>
			<polygon id="XMLID_25_" style="fill:#4E74D1;" points="240.664,205.622 254.504,265.352 275.264,265.352 261.515,196.607 			"/>
			<polygon id="XMLID_27_" style="fill:#92AEF4;" points="405.605,173.89 331.714,115.98 331.691,116.084 257.873,173.935 
				344.491,173.935 344.481,173.89 			"/>
			<path id="XMLID_31_" style="fill:#C8FFD4;" d="M294.179,273.385c0-7.18-5.821-13.001-13.001-13.001
				c-1.915,0-3.731,0.418-5.368,1.161c-0.87-6.335-6.301-11.217-12.876-11.217c-6.236,0-11.444,4.392-12.706,10.251
				c-0.726-0.126-1.471-0.195-2.233-0.195c-7.18,0-13.001,5.821-13.001,13.001c0,7.18,5.821,13.001,13.001,13.001
				c0.621,0,1.231-0.046,1.828-0.131l31.258,0.128c0.033,0,0.065,0.003,0.097,0.003c0.023,0,0.047-0.002,0.07-0.002l0.433,0.002
				l0.006-0.013C288.631,286.105,294.179,280.394,294.179,273.385z"/>
			<path id="XMLID_22_" style="fill:#C8FFD4;" d="M364.653,270.107c0-7.18,5.82-13,13-13c1.915,0,3.731,0.417,5.368,1.161
				c0.87-6.335,6.301-11.216,12.876-11.216c6.236,0,11.444,4.392,12.706,10.251c0.726-0.126,1.472-0.195,2.233-0.195
				c7.18,0,13.001,5.82,13.001,13s-5.821,13.001-13.001,13.001c-0.621,0-1.231-0.046-1.829-0.13l-31.258,0.128
				c-0.033,0-0.065,0.002-0.097,0.002c-0.023,0-0.047-0.002-0.07-0.002l-0.433,0.002l-0.006-0.013
				C370.201,282.827,364.653,277.116,364.653,270.107z"/>
			<polygon id="XMLID_1_" style="fill:#7194FF;" points="259.967,187.047 225.367,207.078 229.009,214.727 261.515,196.607 			"/>
			<circle id="XMLID_29_" style="fill:#FFFFFF;" cx="331.352" cy="150.99" r="13.111"/>
			<path id="XMLID_37_" style="fill:#FFFFFF;" d="M294.021,237.672h-14.933c-2.112,0-3.824-1.712-3.824-3.824v-15.661
				c0-2.112,1.712-3.824,3.824-3.824h14.933c2.112,0,3.824,1.712,3.824,3.824v15.661
				C297.845,235.96,296.133,237.672,294.021,237.672z"/>
			<path id="XMLID_111_" style="fill:#92AEF4;" d="M292.796,236.086h-12.635c-1.821,0-3.297-1.476-3.297-3.297v-13.75
				c0-1.821,1.476-3.297,3.297-3.297h12.635c1.821,0,3.297,1.476,3.297,3.297v13.75C296.093,234.61,294.617,236.086,292.796,236.086
				z"/>
			<polygon id="XMLID_114_" style="fill:#FFFFFF;" points="297.565,225.245 287.348,225.245 287.348,214.939 285.698,214.939 
				285.698,225.245 275.838,225.245 275.838,226.896 285.698,226.896 285.698,236.666 287.348,236.666 287.348,226.896 
				297.565,226.896 			"/>
			<path id="XMLID_113_" style="fill:#FFFFFF;" d="M384.676,237.672h-14.933c-2.112,0-3.824-1.712-3.824-3.824v-15.661
				c0-2.112,1.712-3.824,3.824-3.824h14.933c2.112,0,3.824,1.712,3.824,3.824v15.661C388.5,235.96,386.788,237.672,384.676,237.672z
				"/>
			<path id="XMLID_112_" style="fill:#92AEF4;" d="M383.451,236.086h-12.635c-1.821,0-3.297-1.476-3.297-3.297v-13.75
				c0-1.821,1.476-3.297,3.297-3.297h12.635c1.821,0,3.297,1.476,3.297,3.297v13.75C386.748,234.61,385.272,236.086,383.451,236.086
				z"/>
			<polygon id="XMLID_88_" style="fill:#FFFFFF;" points="388.22,225.245 378.004,225.245 378.004,214.939 376.353,214.939 
				376.353,225.245 366.493,225.245 366.493,226.896 376.353,226.896 376.353,236.666 378.004,236.666 378.004,226.896 
				388.22,226.896 			"/>
			<path id="XMLID_118_" style="fill:#92AEF4;" d="M351.82,219.311c-0.308-5.268-2.567-10.021-6.074-13.527
				c-3.78-3.78-9.005-6.114-14.765-6.114c-11.116,0-20.198,8.686-20.839,19.641H351.82z"/>
			<rect id="XMLID_34_" x="310.548" y="223.505" style="fill:#92AEF4;" width="18.202" height="34.263"/>
			<rect id="XMLID_117_" x="332.096" y="223.505" style="fill:#92AEF4;" width="18.872" height="34.263"/>
			<rect id="XMLID_116_" x="310.748" y="260.044" style="fill:#92AEF4;" width="40.666" height="18.247"/>
			<polygon id="XMLID_72_" style="fill:#7194FF;" points="309,286.833 355,286.833 361.333,299.167 302.5,299.167 			"/>
		</g>
		<g id="XMLID_67_">
			<path id="XMLID_69_" style="fill:#FF7F82;" d="M220.438,70.727V70.72c0,0-0.855-0.094-2.235-0.088
				c-1.381-0.006-2.235,0.088-2.235,0.088v0.007c-7.699,0.607-22.543,4.701-21.378,27.409c0.796,15.513,22.228,52.922,23.614,50.962
				c1.386,1.961,22.818-35.449,23.614-50.962C242.981,75.428,228.138,71.334,220.438,70.727z"/>
			<circle id="XMLID_66_" style="fill:#FFFFFF;" cx="217.795" cy="92.555" r="13.414"/>
		</g>
		<g id="XMLID_20_">
			<g id="XMLID_70_">
				<path id="XMLID_73_" style="fill:#FF9627;" d="M217.716,220.247v-4.772l-5.257,0.043c-2.933-1.186-6.837-1.917-11.139-1.917
					c-4.528,0-8.627,0.803-11.603,2.102l-4.859,0.04v5.554h0.054c0.552,3.772,7.677,6.759,16.409,6.759
					c9.092,0,16.462-3.236,16.462-7.227C217.783,220.632,217.751,220.439,217.716,220.247z"/>
				<ellipse id="XMLID_68_" style="fill:#FFDD4F;" cx="201.32" cy="215.743" rx="16.462" ry="7.227"/>
				<ellipse id="XMLID_71_" style="fill:#EFC233;" cx="201.231" cy="215.207" rx="11.788" ry="5.175"/>
			</g>
			<g id="XMLID_74_">
				<path id="XMLID_77_" style="fill:#FF9627;" d="M204.733,211.414v-4.772l-5.257,0.043c-2.933-1.186-6.837-1.917-11.139-1.917
					c-4.528,0-8.627,0.803-11.603,2.102l-4.859,0.04v5.554h0.054c0.552,3.772,7.677,6.759,16.409,6.759
					c9.092,0,16.462-3.236,16.462-7.227C204.8,211.799,204.768,211.606,204.733,211.414z"/>
				<ellipse id="XMLID_76_" style="fill:#FFDD4F;" cx="188.338" cy="206.909" rx="16.462" ry="7.227"/>
				<ellipse id="XMLID_75_" style="fill:#EFC233;" cx="188.249" cy="206.374" rx="11.788" ry="5.175"/>
			</g>
			<g id="XMLID_78_">
				<path id="XMLID_81_" style="fill:#FF9627;" d="M226.951,194.148v-4.772l-5.257,0.043c-2.933-1.186-6.837-1.917-11.139-1.917
					c-4.528,0-8.627,0.803-11.603,2.102l-4.859,0.04v5.554h0.054c0.552,3.772,7.677,6.759,16.408,6.759
					c9.092,0,16.463-3.236,16.463-7.227C227.018,194.533,226.986,194.34,226.951,194.148z"/>
				<path id="XMLID_80_" style="fill:#FFDD4F;" d="M227.018,189.644c0,3.992-7.371,7.227-16.463,7.227s-16.462-3.236-16.462-7.227
					c0-3.992,7.37-7.227,16.462-7.227S227.018,185.652,227.018,189.644z"/>
				<ellipse id="XMLID_79_" style="fill:#EFC233;" cx="210.466" cy="189.108" rx="11.788" ry="5.175"/>
			</g>
		</g>
		<g id="XMLID_82_">
			<polygon id="XMLID_96_" style="fill:#FF9627;" points="238.654,401.645 231.642,404.983 226.078,397.296 224.304,394.84 
				242.352,356.78 255.22,363.162 250.977,372.109 246.729,374.256 248.01,379.171 246.616,382.111 241.997,384.778 
				243.285,389.135 241.674,392.533 237.739,395.389 			"/>
			
				<rect id="XMLID_84_" x="239.36" y="360.427" transform="matrix(0.9036 0.4285 -0.4285 0.9036 186.7951 -66.0791)" style="fill:#EFC233;" width="1.647" height="42.948"/>
			<polygon id="XMLID_94_" style="fill:#EFC233;" points="244.243,358.989 226.078,397.296 224.304,394.84 241.843,357.851 			"/>
			<path id="XMLID_95_" style="fill:#EFC233;" d="M281.707,333.49c-0.69,1.03-1.496,1.949-2.387,2.738
				c-3.743,3.329-9.031,4.355-13.573,2.201c-0.485-0.23-0.944-0.493-1.372-0.774c-1.56,1.066-3.677,1.273-5.564,0.379
				c-2.784-1.32-4.016-4.54-2.757-7.196c0.595-1.255,1.628-2.156,2.856-2.617c0.562-0.216,1.158-0.337,1.761-0.354
				c0.897-0.046,1.821,0.134,2.7,0.551c2.784,1.32,4.016,4.541,2.757,7.196c-0.117,0.247-0.249,0.477-0.407,0.693
				c0.28,0.166,0.564,0.324,0.867,0.467c4.13,1.958,8.981,0.86,12.236-2.386c0.68-0.676,1.294-1.451,1.815-2.314
				c-0.421-0.413-0.918-0.761-1.486-1.03l-27.345-12.967c-2.821-1.338-6.182-0.139-7.52,2.682l-12.424,26.201
				c-1.338,2.821-0.139,6.182,2.682,7.52l27.345,12.967c2.821,1.337,6.182,0.138,7.52-2.682l12.424-26.201
				C282.635,336.88,282.528,335.001,281.707,333.49z"/>
			<path id="XMLID_93_" style="fill:#FF9627;" d="M279.321,336.228c-3.743,3.329-9.031,4.355-13.573,2.201
				c-0.485-0.23-0.944-0.493-1.372-0.774c-1.56,1.066-3.677,1.273-5.564,0.379c-2.784-1.32-4.016-4.54-2.757-7.196
				c0.595-1.255,1.628-2.156,2.856-2.617c0.562-0.216,1.158-0.337,1.761-0.354c0.897-0.046,1.821,0.134,2.7,0.551
				c2.784,1.32,4.016,4.541,2.757,7.196c-0.117,0.247-0.249,0.477-0.407,0.693c0.28,0.166,0.564,0.324,0.867,0.467
				c4.13,1.958,8.981,0.86,12.236-2.386c-0.469-0.974-1.257-1.796-2.319-2.3l-23.902-11.334c-2.464-1.168-5.407-0.118-6.57,2.336
				l-10.861,22.904c-1.168,2.463-0.118,5.407,2.345,6.575l23.902,11.334c2.464,1.168,5.407,0.118,6.575-2.345l10.861-22.904
				C279.224,337.876,279.374,337.039,279.321,336.228z"/>
			<path id="XMLID_91_" style="fill:#FFFFFF;" d="M277.182,314.316c-6.2-2.94-13.794,0.066-16.952,6.723
				c-0.135,0.284-0.26,0.572-0.372,0.856c-0.267,0.658-0.471,1.325-0.625,2.003c-0.351,1.449-0.447,2.906-0.322,4.323
				c0.316,3.829,2.257,7.352,5.465,9.434c0.528-0.356,0.985-0.8,1.346-1.347c-2.989-1.787-4.796-4.978-5.05-8.441
				c-0.085-1.05-0.035-2.126,0.183-3.2c0.131-0.678,0.316-1.353,0.579-2.025c0.112-0.306,0.241-0.604,0.38-0.897
				c2.727-5.751,9.288-8.35,14.654-5.805c5.357,2.54,7.497,9.265,4.77,15.016c-0.182,0.385-0.383,0.761-0.598,1.119
				c0.435,0.408,0.794,0.881,1.068,1.415c0.369-0.565,0.706-1.157,1.005-1.789C285.87,325.043,283.391,317.261,277.182,314.316z"/>
			<path id="XMLID_90_" style="fill:#EFC233;" d="M281.707,333.49c-0.69,1.03-1.496,1.949-2.387,2.738
				c-0.045-0.638-0.208-1.265-0.496-1.839c0.68-0.676,1.294-1.451,1.815-2.314C281.074,332.483,281.433,332.956,281.707,333.49z"/>
			<path id="XMLID_89_" style="fill:#FF9627;" d="M279.321,336.228c-3.743,3.329-9.031,4.355-13.573,2.201
				c-0.485-0.23-0.944-0.493-1.372-0.774c0.528-0.356,0.985-0.8,1.346-1.347c0.28,0.166,0.564,0.324,0.867,0.467
				c4.13,1.958,8.981,0.86,12.236-2.386C279.113,334.963,279.276,335.59,279.321,336.228z"/>
		</g>
		<g id="XMLID_121_">
			
				<ellipse id="XMLID_83_" transform="matrix(0.7071 -0.7071 0.7071 0.7071 -44.4664 396.4074)" style="fill:#FFFFFF;" cx="456.273" cy="251.879" rx="19.273" ry="19.273"/>
			<g id="XMLID_85_">
				<path id="XMLID_87_" style="fill:#FF7F82;" d="M448.231,262.23l-10.84-9.255c-1.319-1.126-1.657-3.123-0.601-4.498
					c1.126-1.467,3.234-1.674,4.621-0.489l9.244,7.892l22.071-22.389c1.15-1.344,3.172-1.5,4.514-0.35
					c1.343,1.15,1.5,3.171,0.349,4.514l-23.552,24.12C452.56,263.503,449.961,263.706,448.231,262.23z"/>
			</g>
		</g>
		<g id="XMLID_45_">
			<path id="XMLID_107_" style="fill:#7194FF;" d="M456.723,319.721v50.324c0,8.662-7.024,15.676-15.675,15.676h-66.803
				c-8.662,0-15.676-7.013-15.676-15.676v-50.324c0-8.652,7.013-15.675,15.676-15.675h66.803
				C449.699,304.045,456.723,311.069,456.723,319.721z"/>
			<path id="XMLID_86_" style="fill:#CEDAFF;" d="M439.587,327.544h-66.028c-3.745,0-6.781-3.036-6.781-6.781v0
				c0-3.745,3.036-6.781,6.781-6.781h66.028c3.745,0,6.781,3.036,6.781,6.781v0C446.369,324.508,443.333,327.544,439.587,327.544z"
				/>
			<path id="XMLID_104_" style="fill:#92AEF4;" d="M456.723,333.437v36.608c0,8.662-7.024,15.676-15.675,15.676h-66.803
				c-8.662,0-15.676-7.013-15.676-15.676v-36.608H456.723z"/>
			<rect id="XMLID_41_" x="367.67" y="338.073" style="fill:#FFFFFF;" width="14.812" height="9.993"/>
			<rect id="XMLID_92_" x="386.408" y="338.073" style="fill:#FFFFFF;" width="14.812" height="9.993"/>
			<rect id="XMLID_97_" x="405.324" y="338.073" style="fill:#FFFFFF;" width="14.812" height="9.993"/>
			<rect id="XMLID_110_" x="429.237" y="338.073" style="fill:#FFFFFF;" width="14.812" height="9.993"/>
			<rect id="XMLID_101_" x="367.67" y="351.814" style="fill:#FFFFFF;" width="14.812" height="9.993"/>
			<rect id="XMLID_100_" x="386.408" y="351.814" style="fill:#FFFFFF;" width="14.812" height="9.993"/>
			<rect id="XMLID_98_" x="405.324" y="351.814" style="fill:#FFFFFF;" width="14.812" height="9.993"/>
			<rect id="XMLID_108_" x="367.67" y="366.091" style="fill:#FFFFFF;" width="14.812" height="9.993"/>
			<rect id="XMLID_106_" x="386.408" y="366.091" style="fill:#FFFFFF;" width="14.812" height="9.993"/>
			<rect id="XMLID_103_" x="405.324" y="366.091" style="fill:#FFFFFF;" width="14.812" height="9.993"/>
			<rect id="XMLID_109_" x="429.772" y="352.885" style="fill:#FFFFFF;" width="14.812" height="23.199"/>
		</g>
	</g>
	<g id="XMLID_119_">
		<path id="XMLID_26_" style="fill:#FFAE9F;" d="M288.027,242.098c-2.259,1.536-5.131,2.825-7.049,3.68
			c1.173-1.27,3.284-3.297,6.307-5.211c4.889-3.097,7.539-7.647,4.559-7.268c-1.68,0.214-9.914,5.181-13.559,7.421
			c-0.045-0.133-0.09-0.266-0.135-0.397c3.678-2.12,7.938-6.612,10.076-7.978c2.388-1.526,4.445-5.507,2.388-5.971
			c-1.752-0.396-11.491,6.427-14.339,8.458c-0.057-0.165-0.091-0.264-0.091-0.264s4.18-4.677,6.071-6.07
			c1.891-1.393,6.469-4.379,4.08-5.772c-2.388-1.393-5.971,2.189-11.644,5.075c-5.074,2.581-15.425,8.459-15.425,8.459
			s0.697-3.284,0.995-4.08c0.298-0.796,3.085-3.881,3.384-6.966c0.298-3.085-2.289-4.677-3.483-2.786
			c-1.194,1.891-4.677,5.772-7.663,9.952c-2.986,4.18-4.379,11.743-4.379,11.743l-3.384,1.891
			c-2.488,7.862,2.488,19.107,2.488,19.107l10.549-5.971c14.828-1.692,23.752-8.227,23.752-8.625c0,0,8.957-5.639,10.482-7.364
			C293.534,241.435,291.344,239.842,288.027,242.098z"/>
		<path id="XMLID_143_" style="fill:#4E74D1;" d="M252.5,266.68c0,0-49.87,26.49-72.13,30.5c-18.61,3.34-35.97-24.72-41.17-34.03
			c-1.02-1.83-1.57-2.93-1.57-2.93l11.13-57.28c0,0,6.68,5.64,14.69,23c8.02,17.36,20.93,39.18,20.93,39.18s39.62-10.02,59.66-20.26
			l5.62,14.48L252.5,266.68z"/>
		<path id="XMLID_141_" style="fill:#014373;" d="M153.58,179.64c-6.22,8.02-20.46,4.81-20.46,4.81s-0.2,5.21-9.62,8.22
			c-9.43,3.01-24.67-8.22-35.5-4.21c-10.83,4.01-25.27-6.82-25.27-6.82c-3.67,1.99-10.74,2.81-15.84-0.58
			c-1.58-1.04-2.97-2.49-4.01-4.43c-4.41-8.22,3.61-12.03,13.04-18.45c9.42-6.42,1.4-25.07,3-42.11
			c1.58-16.76,13.95-23.54,14.36-23.76c0.01-0.01,0.01-0.01,0.01-0.01c1.04-1.45,2.11-2.78,3.2-4c20.77-23.22,49.9-6,55.97-2.05
			c13.23,8.63,21.24,21.74,19.64,33.37c-0.63,4.58-2.25,11.1-3.52,17.65c-1.96,10.08-3.11,20.24,1.39,23.52
			C156.86,165.82,159.8,171.62,153.58,179.64z"/>
		<path id="XMLID_138_" style="fill:#3F62A8;" d="M252.5,266.68c0,0-49.87,26.49-72.13,30.5c-18.61,3.34-35.97-24.72-41.17-34.03
			l7.8-4.82c0,0,12,19.34,24,27c11,7.03,70.597-17.173,80.167-21.913L252.5,266.68z"/>
		<path id="XMLID_145_" style="fill:#7194FF;" d="M59.71,330.12c0,0,8.89-9.72,1.87-33.33c-1.31-4.42-3.18-9.33-5.79-14.76
			c-1.08-2.28-2.3-4.65-3.65-7.11c-13.21-24.01-14.11-48.32-12.76-63.76c0.83-9.48,2.5-15.6,2.68-16.27
			c0.01-0.04,0.02-0.06,0.02-0.06l1.11-0.43l35.76-14.03l0.35-0.14l46.01,5.19l23.45,17.52c4.45,7.56,11.01,42.2,2.38,67.37
			c-14.63,42.65,7.86,103,7.86,103L52.1,354.73l0.15-0.49L59.71,330.12z"/>
		<path id="XMLID_15_" style="fill:#FFAE9F;" d="M125.888,198.118c0,0-1.014,4.267-12.004,5.411
			c-10.99,1.145-33.101-14.57-33.101-14.57c5.074-10.276,5.861-23.308,5.559-32.87c-0.128-3.737-0.003-7.413-0.268-9.721
			c-0.275-2.455,34.319,20.382,34.319,20.382c-0.11,0.366-0.211,0.742-0.302,1.099c-1.245,4.707-1.566,8.883-1.346,12.51
			C119.459,192.073,125.888,198.118,125.888,198.118z"/>
		<path id="XMLID_9_" style="fill:#D38B85;" d="M118.745,180.36c-1.282-0.174-2.711-0.439-4.304-0.788
			c-11.741-2.583-24.865-19.178-28.098-23.482c-0.128-3.737-0.09-8.114-0.356-10.422l34.104,22.181
			C118.845,172.557,118.525,176.733,118.745,180.36z"/>
		<path id="XMLID_2_" style="fill:#FFAE9F;" d="M141.28,117.938c0,0-0.775,12.766-1.537,28.009
			c-0.802,16.044-20.121,27.341-22.26,27.875c-2.139,0.535-26.307-9.678-30.051-24.651c-3.743-14.974-7.116-34.977,3.044-46.742
			C100.637,90.664,138.606,87.99,141.28,117.938z"/>
		<path id="XMLID_3_" style="fill:#FFAE9F;" d="M85.663,130.238c0,0-1.604-6.952-8.289-5.08c-6.685,1.872-5.08,17.915,0.802,20.856
			c5.883,2.941,8.824,0,8.824,0L85.663,130.238z"/>
		<path id="XMLID_5_" style="fill:#014373;" d="M82.187,125.09c0,0,1.537,14.64,6.15,16.645l1.27-17.046
			c0,0,11.498-4.078,11.297-16.912c0,0,13.904,11.632,41.245,11.397c0,0,5.214-11.13-3.209-21.759
			c-8.423-10.629-24.065-15.241-43.518-5.214C75.97,102.229,80.182,121.48,82.187,125.09z"/>
		<path id="XMLID_7_" style="fill:#D38B85;" d="M126.607,145.145c0,0-2.407,3.71-6.117,3.008c-3.71-0.702-3.309-1.103-3.309-1.103
			L126.607,145.145z"/>
		<path id="XMLID_8_" style="fill:#014373;" d="M127.659,123.665c0,0,1.103-3.509,5.415-4.211c4.312-0.702,5.314,2.507,5.314,2.507
			S131.77,120.958,127.659,123.665z"/>
		<path id="XMLID_140_" style="fill:#5A80E0;" d="M148.67,336.33L70,354.67l-17.75-0.43l7.46-24.12c0,0,8.89-9.72,1.87-33.33
			c-1.31-4.42-3.18-9.33-5.79-14.76l12.28-43.61c0,0,8.93,38.58,6.26,60.91C71.67,321.67,148,328.67,148,328.67L148.67,336.33z"/>
		<path id="XMLID_6_" style="fill:#014373;" d="M100.784,121.962c0,0,9.748-1.338,15.173,0.899c0,0-2.234-4.781-8.214-4.566
			C101.762,118.511,100.784,121.962,100.784,121.962z"/>
		<path id="XMLID_10_" style="fill:#003556;" d="M108.032,131.264c0,2.298-0.853,4.161-1.905,4.161
			c-1.052,0-1.905-1.863-1.905-4.161s0.853-4.161,1.905-4.161C107.179,127.102,108.032,128.965,108.032,131.264z"/>
		<path id="XMLID_11_" style="fill:#003556;" d="M131.261,131.512c0,2.117-0.786,3.833-1.755,3.833
			c-0.969,0-1.755-1.716-1.755-3.833c0-2.117,0.786-3.833,1.755-3.833C130.476,127.679,131.261,129.395,131.261,131.512z"/>
		<path id="XMLID_12_" style="fill:#FFFFFF;" d="M124.902,153.668c0,0-7.715,0.996-13.938,0c0,0,0.04,2.981,5.102,4.604
			C122.662,160.388,124.902,153.668,124.902,153.668z"/>
		<path id="XMLID_13_" style="fill:#D38B85;" d="M76.973,127.697c1.197-1.011,3.209,0.201,4.813,4.011
			c1.604,3.81-1.504,5.515-0.702,7.32c0.802,1.805,3.108,2.406,1.504,3.51c-1.604,1.103-3.71-0.401-3.71-2.005
			c0-1.604,2.206-6.417,1.504-7.32c-0.702-0.902-2.407,3.911-2.607,2.206c-0.201-1.705,1.805-3.91,1.103-5.014
			c-0.702-1.103-2.808,3.108-2.808,5.415C76.07,138.126,73.096,130.973,76.973,127.697z"/>
		<path id="XMLID_14_" style="fill:#FFFFFF;" d="M84.966,173.253l29.14,29.941c0,0-10.165,7.762-20.33,7.762
			c-10.165,0-15.956-30.187-15.956-30.187L84.966,173.253z"/>
		<path id="XMLID_17_" style="fill:#FFFFFF;" d="M118.225,178.763l-3.673,24.766c0,0,8.682,6.011,14.693,3.785
			c6.011-2.226-4.675-22.93-4.675-22.93L118.225,178.763z"/>
		<path id="XMLID_21_" style="fill:#FFAE9F;" d="M143.554,308.412l8.62-2.924c0,0,4.351-6.714,7.866-10.24
			c2.497-2.505,7.309-7.992,9.869-9.212c2.56-1.221,0.452,7.527-1.657,9.358c-2.108,1.831-3.916,7.12-3.916,7.73
			s13.554-0.61,17.168-2.034c3.614-1.424,11.144-5.696,13.554-5.086c2.41,0.61,1.355,4.679-3.915,7.934c0,0,0.602,3.051-1.506,6.51
			c0,0-0.301,6.51-4.367,8.747c0,0-2.838,4.708-6.602,7.556c-3.765,2.848-22.463,1.191-25.173,1.395
			c-2.711,0.203-9.186,1.831-9.186,1.831S141.747,311.87,143.554,308.412z"/>
		<path id="XMLID_144_" style="fill:#4E74D1;" d="M146.53,306.97l-1.1,21.08l-0.23,4.3c0,0-68.12,15.14-88.16,15.58
			c-20.03,0.45-32.05-11.57-32.94-20.92V327c0.02-0.35,4.04-73.55,6.23-102.84c0.85-11.37,3.72-18.66,6.33-23.08
			c0,0,0-0.01,0.01-0.01c2.52-4.26,4.79-5.85,4.79-5.85c0.2-0.12,0.4-0.23,0.6-0.33c0.38-0.19,0.76-0.35,1.13-0.49
			c2.6-0.92,5.01-0.51,7.25,0.83c0.23,0.14,0.46,0.29,0.7,0.45c8.15,5.67,13.77,23.49,16.17,32.5c0.89,3.34,1.14,6.81,0.76,10.24
			l-6.49,58.37l-1.61,14.53l-0.05,0.44C82.81,311.13,125.72,312.26,146.53,306.97z"/>
		<path id="XMLID_44_" style="fill:#D38B85;" d="M123.815,130.651c0,0,1.119,12,2.792,14.494
			C126.607,145.145,128.543,136.615,123.815,130.651z"/>
		<path id="XMLID_59_" style="fill:#FFE3AF;" d="M139.025,123.996h-10.068c-2.42,0-4.382,1.922-4.382,4.294v1.305
			c-2.22-0.581-4.004-0.371-5.16-0.061v-1.128c0-2.509-2.076-4.543-4.636-4.543H102.56c-2.424,0-4.396,1.839-4.596,4.165
			l-14.285-3.307c-0.62-0.144-1.241,0.233-1.388,0.84l0.108,0.317l15.526,4.301v1.338c0,3.705,3.065,6.708,6.845,6.708h7.8
			c3.694,0,6.707-2.886,6.833-6.477c0.729-0.284,2.599-0.777,5.172,0.051v0.253c0,3.482,2.881,6.305,6.434,6.305h5.965
			c3.553,0,6.434-2.823,6.434-6.305v-3.762C143.407,125.918,141.445,123.996,139.025,123.996z M117.27,131.517
			c0,2.54-2.108,4.606-4.7,4.606h-7.8c-2.592,0-4.701-2.067-4.701-4.606v-3.11c0-1.346,1.117-2.441,2.491-2.441h12.22
			c1.373,0,2.491,1.095,2.491,2.441V131.517z M141.263,132.052c0,2.318-1.924,4.203-4.289,4.203h-5.965
			c-2.365,0-4.289-1.885-4.289-4.203v-3.762c0-1.209,1.004-2.192,2.237-2.192h10.069c1.233,0,2.237,0.984,2.237,2.192V132.052z"/>
		<path id="XMLID_39_" style="fill:#D38B85;" d="M111.381,159.197c0,0,4.816,3.415,10.595,1.051c0,0-0.963,3.152-4.816,3.503
			C113.307,164.1,111.381,159.197,111.381,159.197z"/>
		<path id="XMLID_131_" style="fill:#D38B85;" d="M272.5,231.75c0,0,7.125,7,8.5,16.875C281,248.625,272.875,233.25,272.5,231.75z"
			/>
		<path id="XMLID_132_" style="fill:#D38B85;" d="M260.125,237.125c0,0,0.625,8.25-2.875,13.125c0,0,0.875-11.125,2.75-13.625"/>
		<path id="XMLID_122_" style="fill:#FF7F82;" d="M125.127,500h52.539c0,0-5.902-71.114-9.738-94.57
			c-5.499-33.625-14.562-51.094-14.562-51.094L51.985,354.23c-1.726,8.249-2.2,15.288-4.615,21.423
			c-5.873,14.914-8.242,30.975-7.066,46.961L54.199,500h57.268c0,0-0.662-23.864,0.276-50.013L125.127,500z"/>
		<path id="XMLID_40_" style="fill:#D1656F;" d="M111.743,449.987c0,0,3.051-28.445,18.813-43.506c0,0-3.503,19.965-3.853,34.676
			C126.353,455.867,136.861,500,136.861,500h-11.734L111.743,449.987z"/>
		<path id="XMLID_126_" style="fill:#00385B;" d="M76.167,94l22.333,9.5C98.5,103.5,91.5,92.833,76.167,94z"/>
		<path id="XMLID_134_" style="fill:#0C6296;" d="M152.1,119.62c-0.63,4.58-2.25,11.1-3.52,17.65c0.86-9.04,1.79-25.02-1.58-32.1
			c-4.83-10.17-21.5-23.84-40.67-25.34c-15.23-1.19-26.05,5.62-29.84,8.47c20.77-23.22,49.9-6,55.97-2.05
			C145.69,94.88,153.7,107.99,152.1,119.62z"/>
		<path id="XMLID_4_" style="fill:#0C6296;" d="M100.904,107.777c0,0,28.262,10.556,45.096,9.556c0,0-3.667,4.417-21.917,0.25
			C105.833,113.417,100.904,107.777,100.904,107.777z"/>
		<path id="XMLID_128_" style="fill:#D38B85;" d="M190.333,304.417c0,0-7.583,5-11.75,5.917
			C178.583,310.333,188.083,310.333,190.333,304.417z"/>
		<path id="XMLID_129_" style="fill:#D38B85;" d="M188.5,311.417c0,0-1.417,2.083-5.167,3.583s-6.833,1.333-6.833,1.333
			L188.5,311.417z"/>
		<path id="XMLID_127_" style="fill:#D38B85;" d="M184.5,319.667c0,0-2.333,1.5-5.083,2.25s-4.583,0.583-4.583,0.583
			s2.75,1.333,5,0.583S184.5,319.667,184.5,319.667z"/>
		<path id="XMLID_139_" style="fill:#0C6296;" d="M61.5,125.33c2.17,17.17,4,23.5,0.5,32.67s-16,9-17,15.17
			c-0.45,2.8,0.6,5.63,1.89,7.89c-1.58-1.04-2.97-2.49-4.01-4.43c-4.41-8.22,3.61-12.03,13.04-18.45c9.42-6.42,1.4-25.07,3-42.11
			c1.58-16.76,13.95-23.54,14.36-23.76C72.89,92.76,59.36,108.42,61.5,125.33z"/>
		<path id="XMLID_16_" style="fill:#5A80E0;" d="M81.667,267l63.667,2.333C145.333,269.333,108.333,282.333,81.667,267z"/>
		<path id="XMLID_19_" style="fill:#3F62A8;" d="M58,314l-16.75,9.5C41.25,323.5,44.5,310.5,58,314z"/>
		<path id="XMLID_18_" style="fill:#D1656F;" d="M55.333,368.667L149,364C149,364,80.333,377.333,55.333,368.667z"/>
		<path id="XMLID_23_" style="fill:#3F62A8;" d="M181.5,267.5l-6.75,19.5l6.5,0.5C181.25,287.5,187,275,181.5,267.5z"/>
		<path id="XMLID_137_" style="fill:#3F62A8;" d="M145.43,328.05l-0.23,4.3c0,0-68.12,15.14-88.16,15.58
			C37.01,348.38,25,342.5,24.1,327.01c0-0.003,0-0.01,0-0.01c0.02-0.35,4.04-73.55,6.23-102.84c0.85-11.37,3.72-18.66,6.33-23.08
			c0,0,0-0.01,0.01-0.01c2.52-4.26,4.79-5.85,4.79-5.85c0.2-0.12,0.4-0.23,0.6-0.33c0.38-0.19,0.76-0.35,1.13-0.49
			c2.6-0.92,5.01-0.51,7.25,0.83c0.23,0.14,0.46,0.29,0.7,0.45c0,0-12.81-2.35-17.47,58.65c-4.67,61-7.337,79.17,6.33,84
			C49.216,341.587,130.68,330.52,145.43,328.05z"/>
	</g>
</g>
</svg>
